<?xml version="1.0" encoding="UTF-8" standalone="no"?>
<!DOCTYPE svg PUBLIC "-//W3C//DTD SVG 1.1//EN" "http://www.w3.org/Graphics/SVG/1.1/DTD/svg11.dtd">
<svg width="100%" height="100%" viewBox="0 0 320 320" version="1.1" xmlns="http://www.w3.org/2000/svg" xmlns:xlink="http://www.w3.org/1999/xlink" xml:space="preserve" xmlns:serif="http://www.serif.com/" style="fill-rule:evenodd;clip-rule:evenodd;stroke-linejoin:round;stroke-miterlimit:2;">
    <g transform="matrix(1,0,0,1,199.481,71.3982)">
        <path d="M0,65.437C-7.781,65.437 -14.111,59.108 -14.111,51.328L-14.111,33.096L16.805,33.096L16.805,19.352L-14.111,19.352L-14.111,-13.745L-29.428,-13.745L-29.428,49.756C-29.428,65.983 -16.227,79.182 0,79.182L17.613,79.182L17.613,65.437L0,65.437Z" style="fill:rgb(187,127,91);fill-rule:nonzero;"/>
    </g>
    <g transform="matrix(1,0,0,1,199.481,248.112)">
        <path d="M0,-65.436L17.613,-65.436L17.613,-79.182L0,-79.182C-16.227,-79.182 -29.428,-65.983 -29.428,-49.76L-29.428,13.746L-14.111,13.746L-14.111,-22.385L16.805,-22.385L16.805,-36.129L-14.111,-36.129L-14.111,-51.329C-14.111,-59.11 -7.781,-65.436 0,-65.436" style="fill:rgb(187,127,91);fill-rule:nonzero;"/>
    </g>
    <g transform="matrix(1,0,0,1,288.419,160.247)">
        <path d="M0,-0.495C0,-18.079 -8.033,-34.345 -21.734,-45.016C-21.059,-48.538 -20.715,-52.126 -20.715,-55.726C-20.715,-83.127 -40.047,-106.145 -66.438,-111.185C-74.703,-132.409 -95.336,-146.89 -118.365,-147.189L-118.365,-131.871C-100.426,-131.553 -84.531,-119.444 -79.545,-102.173L-78.105,-97.202L-72.959,-96.675C-51.906,-94.534 -36.027,-76.93 -36.027,-55.726C-36.027,-51.735 -36.605,-47.774 -37.744,-43.949L-39.398,-38.392L-34.508,-35.293C-22.492,-27.685 -15.316,-14.677 -15.316,-0.495C-15.316,13.702 -22.5,26.722 -34.537,34.329L-39.451,37.437L-37.775,43.009C-36.617,46.864 -36.027,50.866 -36.027,54.894C-36.027,76.056 -51.871,93.653 -72.883,95.831L-78.055,96.374L-79.457,101.382C-84.355,118.833 -100.289,131.06 -118.365,131.382L-118.365,146.694C-95.15,146.398 -74.461,131.765 -66.297,110.325C-39.988,105.224 -20.715,82.222 -20.715,54.894C-20.715,51.247 -21.062,47.618 -21.762,44.052C-8.043,33.38 0,17.107 0,-0.495" style="fill:rgb(186,183,176);fill-rule:nonzero;"/>
    </g>
    <g transform="matrix(1,0,0,1,120.521,71.3982)">
        <path d="M0,65.437C7.779,65.437 14.111,59.108 14.111,51.328L14.111,33.096L-16.812,33.096L-16.812,19.352L14.111,19.352L14.111,-13.745L29.426,-13.745L29.426,49.756C29.426,65.983 16.226,79.182 0,79.182L-17.613,79.182L-17.613,65.437L0,65.437Z" style="fill:rgb(187,127,91);fill-rule:nonzero;"/>
    </g>
    <g transform="matrix(1,0,0,1,120.521,248.112)">
        <path d="M0,-65.436L-17.613,-65.436L-17.613,-79.182L0,-79.182C16.226,-79.182 29.426,-65.983 29.426,-49.76L29.426,13.746L14.111,13.746L14.111,-22.385L-16.812,-22.385L-16.812,-36.129L14.111,-36.129L14.111,-51.329C14.111,-59.11 7.779,-65.436 0,-65.436" style="fill:rgb(187,127,91);fill-rule:nonzero;"/>
    </g>
    <g transform="matrix(1,0,0,1,31.5813,160.247)">
        <path d="M0,-0.495C0,-18.079 8.028,-34.345 21.736,-45.016C21.053,-48.538 20.712,-52.126 20.712,-55.726C20.712,-83.127 40.047,-106.145 66.438,-111.185C74.703,-132.409 95.332,-146.89 118.365,-147.189L118.365,-131.871C100.427,-131.553 84.526,-119.444 79.541,-102.173L78.107,-97.202L72.956,-96.675C51.908,-94.534 36.026,-76.93 36.026,-55.726C36.026,-51.735 36.613,-47.774 37.745,-43.949L39.399,-38.392L34.507,-35.293C22.49,-27.685 15.317,-14.677 15.317,-0.495C15.317,13.702 22.501,26.722 34.539,34.329L39.457,37.437L37.781,43.009C36.623,46.864 36.026,50.866 36.026,54.894C36.026,76.056 51.872,93.653 72.878,95.831L78.056,96.374L79.463,101.382C84.355,118.833 100.288,131.06 118.365,131.382L118.365,146.694C95.146,146.398 74.466,131.765 66.303,110.325C39.985,105.224 20.712,82.222 20.712,54.894C20.712,51.247 21.064,47.618 21.766,44.052C8.039,33.38 0,17.107 0,-0.495" style="fill:rgb(186,183,176);fill-rule:nonzero;"/>
    </g>
</svg>
